<svg xmlns="http://www.w3.org/2000/svg" viewBox="0 0 512 512" width="512" height="512">
<defs>
    <!-- 保留六边形裁剪路径 -->
    <clipPath id="hexClip">
        <polygon points="256,56 429,156 429,356 256,456 83,356 83,156"/>
    </clipPath>
</defs>

<!-- 六边形背景：纯色填充，无滤镜，确保所有转换器兼容 -->
<polygon points="256,56 429,156 429,356 256,456 83,356 83,156"
         fill="#0F172A"
         stroke="#38BDF8"
         stroke-width="6"/>

<!-- 左半边：冰箱图案（通过裁剪路径切入六边形） -->
<g clip-path="url(#hexClip)">
    <!-- 冰箱主体 -->
    <rect x="60" y="130" width="190" height="250" rx="15" fill="#F8FAFC"/>
    <!-- 左门（冷冻室） -->
    <rect x="65" y="140" width="85" height="230" rx="8" fill="#CBD5E1"/>
    <!-- 左门把手 -->
    <line x1="130" y1="170" x2="130" y2="270" stroke="#475569" stroke-width="8" stroke-linecap="round"/>
    <line x1="130" y1="310" x2="130" y2="350" stroke="#475569" stroke-width="8" stroke-linecap="round"/>
    <!-- 右门（冷藏室） -->
    <rect x="155" y="140" width="85" height="230" rx="8" fill="#CBD5E1"/>
    <!-- 右门把手 -->
    <line x1="175" y1="170" x2="175" y2="270" stroke="#475569" stroke-width="8" stroke-linecap="round"/>
    <line x1="175" y1="310" x2="175" y2="350" stroke="#475569" stroke-width="8" stroke-linecap="round"/>
    <!-- 门中缝分隔线 -->
    <line x1="153" y1="145" x2="153" y2="365" stroke="#94A3B8" stroke-width="10" stroke-linecap="round"/>
    <line x1="60" y1="290" x2="235" y2="290" stroke="#94A3B8" stroke-width="10" stroke-linecap="round"/>
</g>

<!-- 右半边：代码符号 </> -->
<g>
    <!-- < -->
    <path d="M 310,230 L 270,260 L 310,290" fill="none" stroke="#38BDF8" stroke-width="8" stroke-linecap="round" stroke-linejoin="round"/>
    <!-- / -->
    <line x1="350" y1="230" x2="330" y2="290" stroke="#38BDF8" stroke-width="8" stroke-linecap="round"/>
    <!-- > -->
    <path d="M 370,230 L 410,260 L 370,290" fill="none" stroke="#38BDF8" stroke-width="8" stroke-linecap="round" stroke-linejoin="round"/>
</g>
</svg>